# xmcd
#
# Track frame offsets: 
#        150
#        22581
#        39707
#        56360
#        72841
#        82821
#        100229
#        119192
#        144840
#        164533
#        179273
#        198308
#        208835
#        222272
#        231720
#        248029
#        274983
#
# Disc length: 3989 seconds
#
# Revision: 0
# Processed by: cddbd v1.5.1PL0 Copyright (c) Steve Scherf et al.
# Submitted via: ExactAudioCopy v0.95a5
#
DISCID=f80f9311
DTITLE=Charlie Landsborough - Movin' On
DYEAR=1900
DGENRE=Country
TTITLE0=Heaven Knows
TTITLE1=Part Of Me
TTITLE2=God Knoking Your Door
TTITLE3=When You're Not A Dream
TTITLE4=There You Are
TTITLE5=Not Time At All
TTITLE6=A Million Ways To Fall
TTITLE7=What Colour Is The Wind
TTITLE8=How Can You Buy Killarney
TTITLE9=Further Down The Road
TTITLE10=I Will Love You All My Life
TTITLE11=To Each His Own
TTITLE12=Loreto
TTITLE13=You Belong To Me
TTITLE14=Shine Your Light
TTITLE15=Lsle Of Innisfree
TTITLE16=My Forever Friend
EXTD=
EXTT0=
EXTT1=
EXTT2=
EXTT3=
EXTT4=
EXTT5=
EXTT6=
EXTT7=
EXTT8=
EXTT9=
EXTT10=
EXTT11=
EXTT12=
EXTT13=
EXTT14=
EXTT15=
EXTT16=
PLAYORDER=
